<?xml version="1.0" encoding="UTF-8"?>
<svg viewBox="0 0 20 20" version="1.1" xmlns="http://www.w3.org/2000/svg" xmlns:xlink="http://www.w3.org/1999/xlink">
    <g>
        <path d="M13.0269308,12.2608926 C12.5336725,12.7489553 12.0402154,13.2370842 11.5573024,13.7357584 C11.4246705,13.8738405 11.313326,13.900303 11.148796,13.8101052 C10.830413,13.6350155 10.4910742,13.4971986 10.1833681,13.3059927 C8.75624828,12.4093209 7.55712281,11.2526011 6.49606721,9.94738666 C5.97097732,9.30021782 5.49874126,8.61033769 5.17518562,7.8305251 C5.11145597,7.67121996 5.11662861,7.57041071 5.24926056,7.44320536 C5.74278405,6.96575419 6.22563067,6.47742623 6.70821202,5.98929724 C7.38198232,5.3102939 7.38198232,4.51443142 6.70303937,3.82998968 C6.32092672,3.44266994 5.93370774,3.05535019 5.54642245,2.67320356 C5.1485266,2.27527232 4.75606866,1.87734107 4.35273489,1.47940983 C3.7001857,0.842918811 2.89378344,0.837480417 2.24123425,1.47940983 C1.74797602,1.96753882 1.26512941,2.47165138 0.766499589,2.94916888 C0.29970144,3.39498451 0.0608312975,3.936171 0.0131501114,4.57272834 C-0.0611900968,5.60204382 0.188290602,6.57843445 0.543677913,7.52823 C1.27573996,9.49115849 2.38447675,11.2315771 3.72684472,12.8339799 C5.5412498,14.9984606 7.71641379,16.7070447 10.2577083,17.9433507 C11.3982767,18.5003218 12.5865264,18.9249144 13.8757752,18.9938229 C14.7617567,19.0415083 15.5362609,18.8187331 16.1518058,18.129052 C16.5760954,17.6567739 17.0483315,17.2270082 17.4993464,16.7759531 C18.1625062,16.1075613 18.1676788,15.2956489 17.509957,14.6324301 C16.7141653,13.8365677 15.9235462,13.0513167 15.1331924,12.2608926 C14.4858822,11.6188968 13.674241,11.6188968 13.0269308,12.2608926 Z" id="phone"></path>
    </g>
</svg>