<svg width="0" height="0" style="position:absolute"><symbol viewBox="0 0 768 768" id="add" xmlns="http://www.w3.org/2000/svg"><title/><path d="M607.5 415.5h-192v192h-63v-192h-192v-63h192v-192h63v192h192v63z"/></symbol><symbol viewBox="0 0 19 16" id="arrow" xmlns="http://www.w3.org/2000/svg"><path d="M8.875 2.317c-.592-.533-.488-1.451 0-1.935.487-.484 1.358-.534 1.95 0l7.644 7.587-7.645 7.588c-.591.533-1.462.484-1.95 0-.487-.484-.59-1.402 0-1.936l4.178-4.152H1.5a1.5 1.5 0 1 1 0-3h11.552L8.875 2.317z"/></symbol><symbol viewBox="0 0 768 768" id="arrow_right" xmlns="http://www.w3.org/2000/svg"><title/><path d="M96 415.5v-63h453L435 237l45-45 192 192-192 192-45-45 114-115.5H96z"/></symbol><symbol viewBox="0 0 24 24" id="check" xmlns="http://www.w3.org/2000/svg"><title>check</title><path d="M9 16.172L19.594 5.578 21 6.984l-12 12-5.578-5.578L4.828 12z"/></symbol><symbol viewBox="0 0 768 768" id="close" xmlns="http://www.w3.org/2000/svg"><title/><path d="M607.5 205.5L429 384l178.5 178.5-45 45L384 429 205.5 607.5l-45-45L339 384 160.5 205.5l45-45L384 339l178.5-178.5z"/></symbol><symbol viewBox="0 0 16 28" id="facebook" xmlns="http://www.w3.org/2000/svg"><title>facebook</title><path d="M14.984.187v4.125h-2.453c-1.922 0-2.281.922-2.281 2.25v2.953h4.578l-.609 4.625H10.25v11.859H5.469V14.14H1.485V9.515h3.984V6.109C5.469 2.156 7.891 0 11.422 0c1.687 0 3.141.125 3.563.187z"/></symbol><symbol viewBox="0 0 36 28" id="google-plus" xmlns="http://www.w3.org/2000/svg"><title>google-plus</title><path d="M22.453 14.266c0 6.547-4.391 11.188-11 11.188C5.125 25.454 0 20.329 0 14.001S5.125 2.548 11.453 2.548c3.094 0 5.672 1.125 7.672 3l-3.109 2.984c-.844-.812-2.328-1.766-4.562-1.766C7.548 6.766 4.36 10 4.36 14s3.187 7.234 7.094 7.234c4.531 0 6.234-3.266 6.5-4.937h-6.5v-3.938h10.813c.109.578.187 1.156.187 1.906zM36 12.359v3.281h-3.266v3.266h-3.281V15.64h-3.266v-3.281h3.266V9.093h3.281v3.266H36z"/></symbol><symbol viewBox="0 0 20 14" id="mail" xmlns="http://www.w3.org/2000/svg"><path d="M20 .976L10 6.43 0 .976A1 1 0 0 1 1 0h18a1 1 0 0 1 1 .976zm0 1.139V13a1 1 0 0 1-1 1H1a1 1 0 0 1-1-1V2.115l9.76 5.324a.5.5 0 0 0 .48 0L20 2.115z"/></symbol><symbol viewBox="0 0 67 82" id="pdf" xmlns="http://www.w3.org/2000/svg"><path d="M66.642 24.6h-24.75V0l24.75 24.6zm0 4.1v-4.1zM37.767 0v26.65c0 1.132.924 2.05 2.063 2.05h26.812v49.2c0 2.264-1.847 4.1-4.125 4.1H4.767C2.49 82 .642 80.164.642 77.9V4.1C.642 1.836 2.49 0 4.767 0h33zM16.765 63.97h1.96c1.122 0 2.093-.135 2.913-.406.821-.271 1.499-.648 2.033-1.131a4.47 4.47 0 0 0 1.192-1.738c.26-.675.39-1.418.39-2.227 0-.75-.126-1.449-.379-2.095a4.364 4.364 0 0 0-1.175-1.682c-.53-.475-1.207-.848-2.027-1.12-.82-.27-1.803-.406-2.946-.406H13v16.23h3.765V63.97zm0-2.84v-5.146h1.96c.476 0 .886.059 1.231.178.346.119.632.287.858.507.227.219.396.48.507.785.111.304.167.642.167 1.014 0 .839-.215 1.492-.646 1.96-.43.468-1.136.702-2.116.702h-1.961zm25.174.145c0-1.166-.202-2.245-.607-3.236a7.537 7.537 0 0 0-1.71-2.568c-.735-.72-1.62-1.285-2.656-1.693-1.036-.408-2.185-.613-3.448-.613h-6.305v16.23h6.305c1.263 0 2.412-.202 3.448-.607 1.036-.405 1.921-.97 2.656-1.693a7.597 7.597 0 0 0 1.71-2.573c.405-.992.607-2.074.607-3.247zm-3.854 0c0 .809-.104 1.537-.312 2.183-.208.646-.506 1.194-.896 1.643-.39.45-.867.794-1.432 1.036-.564.241-1.206.362-1.927.362h-2.517V56.06h2.517c.72 0 1.363.121 1.927.362a3.894 3.894 0 0 1 1.432 1.036c.39.45.688.997.896 1.643.208.647.312 1.37.312 2.173zm16.107-8.11H43.744v16.23h3.787v-6.316h5.548v-2.907H47.53v-4.11h6.661v-2.897z"/></symbol><symbol viewBox="0 0 20 20" id="phone" xmlns="http://www.w3.org/2000/svg"><path d="M13.027 12.26c-.493.489-.987.977-1.47 1.476-.132.138-.244.164-.408.074-.319-.175-.658-.313-.966-.504-1.427-.897-2.626-2.053-3.687-3.359C5.971 9.3 5.5 8.61 5.176 7.831c-.065-.16-.06-.26.073-.388.494-.477.977-.966 1.46-1.454.673-.679.673-1.475-.006-2.159-.382-.387-.77-.775-1.157-1.157-.397-.398-.79-.796-1.193-1.194-.653-.636-1.46-.642-2.112 0-.493.489-.976.993-1.475 1.47-.466.446-.705.987-.753 1.624-.074 1.029.175 2.005.53 2.955.733 1.963 1.841 3.704 3.184 5.306a19.662 19.662 0 0 0 6.53 5.11c1.141.556 2.33.98 3.619 1.05.886.048 1.66-.175 2.276-.865.424-.472.896-.902 1.347-1.353.664-.668.669-1.48.011-2.144-.796-.795-1.586-1.58-2.377-2.371-.647-.642-1.459-.642-2.106 0z"/></symbol><symbol viewBox="0 0 768 768" id="remove" xmlns="http://www.w3.org/2000/svg"><title/><path d="M607.5 415.5h-447v-63h447v63z"/></symbol><symbol viewBox="0 0 26 28" id="twitter" xmlns="http://www.w3.org/2000/svg"><title>twitter</title><path d="M25.312 6.375a10.85 10.85 0 0 1-2.531 2.609c.016.219.016.438.016.656 0 6.672-5.078 14.359-14.359 14.359-2.859 0-5.516-.828-7.75-2.266.406.047.797.063 1.219.063 2.359 0 4.531-.797 6.266-2.156a5.056 5.056 0 0 1-4.719-3.5c.313.047.625.078.953.078.453 0 .906-.063 1.328-.172a5.048 5.048 0 0 1-4.047-4.953v-.063a5.093 5.093 0 0 0 2.281.641 5.044 5.044 0 0 1-2.25-4.203c0-.938.25-1.797.688-2.547a14.344 14.344 0 0 0 10.406 5.281 5.708 5.708 0 0 1-.125-1.156 5.045 5.045 0 0 1 5.047-5.047 5.03 5.03 0 0 1 3.687 1.594 9.943 9.943 0 0 0 3.203-1.219 5.032 5.032 0 0 1-2.219 2.781c1.016-.109 2-.391 2.906-.781z"/></symbol></svg>